<svg xmlns="http://www.w3.org/2000/svg" viewBox="0 0 1024 1024">
  <rect width="1024" height="1024" fill="#a3001e" rx="51.2"/>
  <path fill="#fff" d="M260.334 422.422c0 45.9-23.375 68.85-70.125 68.85-22.95 0-42.783-7.084-59.5-21.25l25.5-46.75c8.5 8.5 17 12.75 25.5 12.75 5.667 0 10.625-1.913 14.875-5.738s6.375-10.412 6.375-19.762v-233.75h57.375v245.65Zm225.25 5.1-8.5 55.25h-161.5v-306h157.25l8.5 55.25H372.959v68h95.625v55.25h-95.625v72.25h112.625Zm325.125-9.775c-18.133 24.366-37.612 42.712-58.437 55.037-20.825 12.325-48.804 18.488-83.938 18.488-42.5 0-78.625-15.513-108.375-46.538s-44.625-69.346-44.625-114.962c0-45.617 14.875-83.938 44.625-114.963 29.75-31.025 65.875-46.537 108.375-46.537 58.934 0 102.284 19.408 130.05 58.225l-38.25 38.25c-19.55-27.484-50.15-41.225-91.8-41.225-28.05 0-51 10.341-68.85 31.025-17.85 20.683-26.775 45.758-26.775 75.225 0 29.466 8.925 54.541 26.775 75.225 17.85 20.683 40.8 31.025 68.85 31.025 36.55 0 64.884-11.192 85-33.575v-47.175h-55.25l8.5-48.875h104.125v111.35Zm201.871-185.725h-65.871v250.75h-57.375v-250.75h-65.875l6.375-55.25h176.376l6.37 55.25ZM262.264 844.324h-55.25l-137.275-204h-.85v204H11.514v-306h55.25l137.275 204h.85v-204h57.375v306Zm225.25-55.25-8.5 55.25h-161.5v-306h157.25l8.5 55.25H374.889v68h95.625v55.25h-95.625v72.25h112.625Zm223.125-29.75c0 27.767-8.925 50.292-26.775 67.575-17.85 17.283-41.508 25.925-70.975 25.925-22.95 0-42.075-4.25-57.375-12.75-15.3-8.5-30.175-21.108-44.625-37.825l38.25-38.25c7.933 10.483 16.646 18.7 26.138 24.65 9.491 5.95 22.029 8.925 37.612 8.925 11.333 0 20.896-3.329 28.688-9.987 7.791-6.659 11.687-16.08 11.687-28.263 0-10.483-4.392-19.55-13.175-27.2-8.783-7.65-19.408-14.379-31.875-20.187-12.467-5.809-24.933-12.255-37.4-19.338-12.467-7.083-23.092-17.212-31.875-30.387-8.783-13.175-13.175-28.971-13.175-47.388 0-25.783 8.358-46.396 25.075-61.837 16.717-15.442 37.4-23.163 62.05-23.163 35.417 0 63.75 12.75 85 38.25l-31.875 38.25c-10.767-17-28.475-25.5-53.125-25.5-9.917 0-17.708 2.904-23.375 8.713-5.667 5.808-8.5 14.237-8.5 25.287 0 7.65 2.408 14.45 7.225 20.4 4.817 5.95 10.979 10.908 18.488 14.875 7.508 3.967 15.937 8.004 25.287 12.113 9.35 4.108 18.629 8.783 27.838 14.025 9.208 5.241 17.566 11.262 25.075 18.062 7.508 6.8 13.67 15.725 18.487 26.775 4.817 11.05 7.225 23.8 7.225 38.25Z"/>
</svg>
