<svg xmlns="http://www.w3.org/2000/svg">
  <symbol id="email" viewBox="0 0 32 32">
    <path fill="currentColor" d="M25.923 21.077l-0.808 0.808-5.99-5.135-2.625 2.25-2.625-2.25-5.99 5.135-0.808-0.808 5.923-5.077-5.923-5.077 0.808-0.808 8.615 7.385 8.615-7.385 0.808 0.808-5.923 5.077 5.923 5.077zM6.004 8c-1.107 0-2.004 0.895-2.004 1.994v12.012c0 1.101 0.89 1.994 2.004 1.994h20.993c1.107 0 2.004-0.895 2.004-1.994v-12.012c0-1.101-0.89-1.994-2.004-1.994h-20.993z"></path>
  </symbol>

  <symbol id="github" viewBox="0 0 32 32">
    <path fill="currentColor" d="M16 0c-8.836 0-16 7.164-16 16 0 7.070 4.584 13.066 10.942 15.182 0.8 0.146 1.092-0.348 1.092-0.77 0-0.381-0.015-1.643-0.022-2.979-4.449 0.967-5.39-1.887-5.39-1.887-0.729-1.848-1.776-2.34-1.776-2.34-1.454-0.992 0.11-0.973 0.11-0.973 1.606 0.111 2.452 1.648 2.452 1.648 1.428 2.445 3.746 1.738 4.656 1.328 0.145-1.031 0.559-1.738 1.016-2.137-3.552-0.404-7.288-1.777-7.288-7.908 0-1.748 0.624-3.174 1.646-4.294-0.163-0.406-0.714-2.034 0.158-4.236 0 0 1.342-0.43 4.4 1.641 1.275-0.356 2.644-0.532 4.004-0.538 1.359 0.006 2.729 0.184 4.006 0.54 3.053-2.072 4.396-1.641 4.396-1.641 0.875 2.204 0.324 3.83 0.16 4.234 1.025 1.12 1.645 2.546 1.645 4.294 0 6.146-3.742 7.5-7.307 7.896 0.576 0.496 1.086 1.469 1.086 2.961 0 2.139-0.021 3.863-0.021 4.391 0 0.426 0.291 0.924 1.102 0.768 6.354-2.119 10.934-8.115 10.934-15.182 0-8.836-7.164-16-16-16z"></path>
  </symbol>

  <symbol id="twitter" viewBox="0 0 32 32">
    <path fill="currentColor" d="M32 7.075c-1.175 0.525-2.444 0.875-3.769 1.031 1.356-0.813 2.394-2.1 2.887-3.631-1.269 0.75-2.675 1.3-4.169 1.594-1.2-1.275-2.906-2.069-4.794-2.069-3.625 0-6.563 2.938-6.563 6.563 0 0.512 0.056 1.012 0.169 1.494-5.456-0.275-10.294-2.888-13.531-6.862-0.563 0.969-0.887 2.1-0.887 3.3 0 2.275 1.156 4.287 2.919 5.463-1.075-0.031-2.087-0.331-2.975-0.819 0 0.025 0 0.056 0 0.081 0 3.181 2.263 5.838 5.269 6.437-0.55 0.15-1.131 0.231-1.731 0.231-0.425 0-0.831-0.044-1.237-0.119 0.838 2.606 3.263 4.506 6.131 4.563-2.25 1.762-5.075 2.813-8.156 2.813-0.531 0-1.050-0.031-1.569-0.094 2.913 1.869 6.362 2.95 10.069 2.95 12.075 0 18.681-10.006 18.681-18.681 0-0.287-0.006-0.569-0.019-0.85 1.281-0.919 2.394-2.075 3.275-3.394z"></path>
  </symbol>
</svg>
